<svg width="187" height="36" viewBox="0 0 187 36" fill="none" xmlns="http://www.w3.org/2000/svg">
<path d="M14.3804 28.9117L10.6042 24.8485C10.479 24.7211 10.4089 24.5498 10.4089 24.3713C10.4089 24.1928 10.479 24.0214 10.6042 23.8941L14.3804 19.8196C14.5728 19.6291 14.8326 19.5222 15.1033 19.5222C15.3741 19.5222 15.6339 19.6291 15.8262 19.8196L19.5997 23.8941C19.7248 24.0214 19.7949 24.1928 19.7949 24.3713C19.7949 24.5498 19.7248 24.7211 19.5997 24.8485L15.8262 28.9229C15.7306 29.0172 15.6173 29.0917 15.4929 29.1422C15.3685 29.1926 15.2353 29.2181 15.101 29.217C14.9667 29.216 14.834 29.1885 14.7103 29.1361C14.5867 29.0837 14.4746 29.0075 14.3804 28.9117Z" fill="url(#paint0_linear_221_6126)"/>
<path d="M20.4315 2.35809L0.869111 23.4753C0.618037 23.7301 0.477295 24.0734 0.477295 24.4311C0.477295 24.7888 0.618037 25.1321 0.869111 25.3869L9.30923 34.5013C9.69438 34.8826 10.2144 35.0964 10.7564 35.0964C11.2983 35.0964 11.8184 34.8826 12.2035 34.5013L13.1609 33.4688C13.4106 33.2133 13.5504 32.8702 13.5504 32.513C13.5504 32.1557 13.4106 31.8127 13.1609 31.5572L7.44481 25.3897C7.19507 25.1342 7.05524 24.7912 7.05524 24.4339C7.05524 24.0767 7.19507 23.7336 7.44481 23.4781L20.4315 9.46321C20.8159 9.08147 21.3356 8.86723 21.8773 8.86723C22.419 8.86723 22.9387 9.08147 23.3231 9.46321L36.3098 23.4781C36.5595 23.7336 36.6994 24.0767 36.6994 24.4339C36.6994 24.7912 36.5595 25.1342 36.3098 25.3897L30.563 31.5934C30.312 31.8482 30.1712 32.1916 30.1712 32.5493C30.1712 32.9069 30.312 33.2503 30.563 33.5051L31.5204 34.5376C31.9047 34.9194 32.4244 35.1336 32.9661 35.1336C33.5078 35.1336 34.0276 34.9194 34.4119 34.5376L42.8883 25.3897C43.138 25.1342 43.2779 24.7912 43.2779 24.4339C43.2779 24.0767 43.138 23.7336 42.8883 23.4781L23.3231 2.36088C22.9388 1.97945 22.4194 1.76517 21.8779 1.76465C21.3364 1.76413 20.8166 1.97741 20.4315 2.35809Z" fill="url(#paint1_linear_221_6126)"/>
<path d="M27.7384 28.9117L23.9733 24.8485C23.8482 24.7211 23.7781 24.5498 23.7781 24.3713C23.7781 24.1928 23.8482 24.0214 23.9733 23.8941L27.7496 19.8196C27.9419 19.6291 28.2017 19.5222 28.4725 19.5222C28.7432 19.5222 29.003 19.6291 29.1953 19.8196L32.9688 23.8941C33.0939 24.0214 33.1641 24.1928 33.1641 24.3713C33.1641 24.5498 33.0939 24.7211 32.9688 24.8485L29.1953 28.9229C29.0995 29.0189 28.9856 29.0948 28.8601 29.1463C28.7346 29.1977 28.6002 29.2237 28.4645 29.2227C28.3289 29.2216 28.1949 29.1936 28.0702 29.1402C27.9455 29.0868 27.8327 29.0092 27.7384 28.9117Z" fill="url(#paint2_linear_221_6126)"/>
<path d="M21.0762 22.3367L17.3 18.2623C17.1748 18.135 17.1047 17.9636 17.1047 17.7851C17.1047 17.6066 17.1748 17.4352 17.3 17.3079L21.0762 13.2335C21.2686 13.0429 21.5284 12.936 21.7991 12.936C22.0699 12.936 22.3297 13.0429 22.522 13.2335L26.2955 17.3135C26.4206 17.4408 26.4907 17.6122 26.4907 17.7907C26.4907 17.9692 26.4206 18.1405 26.2955 18.2679L22.522 22.3367C22.3297 22.5272 22.0699 22.6341 21.7991 22.6341C21.5284 22.6341 21.2686 22.5272 21.0762 22.3367Z" fill="url(#paint3_linear_221_6126)"/>
<path d="M101.885 21.1088C101.88 18.6676 102.741 16.3035 104.313 14.4363V21.1088H101.885Z" fill="url(#paint4_linear_221_6126)"/>
<path d="M112.664 13.5266C112.664 13.8531 112.539 14.0847 112.257 14.121C110.603 14.3152 109.028 14.9343 107.685 15.9182C107.37 16.1443 106.887 15.9657 106.879 15.6224L106.809 12.9266C106.809 12.8479 106.833 12.771 106.876 12.7055C106.92 12.64 106.982 12.5888 107.054 12.5582C108.636 11.7985 110.352 11.3557 112.103 11.255C112.163 11.2467 112.224 11.2505 112.282 11.2661C112.341 11.2816 112.395 11.3086 112.443 11.3455C112.491 11.3824 112.531 11.4284 112.561 11.4809C112.591 11.5334 112.61 11.5913 112.617 11.6512C112.617 11.6512 112.662 12.7926 112.664 13.5266Z" fill="url(#paint5_linear_221_6126)"/>
<path d="M101.115 11.9386C101.115 11.5227 101.299 11.2883 101.718 11.2883H103.85C104.269 11.2883 104.453 11.5227 104.453 11.9386V33.3655C104.453 33.7841 104.269 34.0158 103.85 34.0158H101.718C101.299 34.0158 101.115 33.7841 101.115 33.3655V11.9386Z" fill="url(#paint6_linear_221_6126)"/>
<path d="M72.0686 11.2743H70.1149C69.6962 11.2743 69.512 11.5059 69.512 11.9218L69.4171 15.7255V22.7301C69.4279 23.8809 69.2449 25.0253 68.8757 26.1153C67.7397 29.4167 64.8845 31.4483 61.1612 31.4483C56.2908 31.4483 52.7658 27.9236 52.7658 22.638C52.7658 17.3971 56.2908 13.825 61.1612 13.825C62.8703 13.7949 64.5457 14.3025 65.9507 15.2762C66.0163 15.3218 66.0933 15.3485 66.1731 15.3532C66.2529 15.358 66.3325 15.3407 66.4032 15.3032C66.4738 15.2658 66.5328 15.2095 66.5736 15.1408C66.6144 15.072 66.6354 14.9933 66.6345 14.9134V12.7673C66.6346 12.6963 66.6177 12.6263 66.5852 12.5632C66.5526 12.5 66.5054 12.4457 66.4475 12.4046C64.7502 11.2641 62.7425 10.6745 60.6979 10.7162C54.0636 10.7162 49.5198 15.865 49.5198 22.638C49.5198 29.4557 54.0636 34.5571 60.6979 34.5571C64.7784 34.5571 67.7481 32.7013 69.4171 29.6399L69.512 33.3515C69.512 33.7673 69.6962 33.999 70.1149 33.999H72.1077C72.187 33.9993 72.2655 33.984 72.3388 33.9538C72.4122 33.9237 72.4788 33.8793 72.5348 33.8232C72.5909 33.7672 72.6353 33.7006 72.6654 33.6273C72.6956 33.554 72.7109 33.4754 72.7106 33.3962V11.9218C72.7106 11.751 72.6431 11.5872 72.5229 11.4659C72.4027 11.3447 72.2394 11.2758 72.0686 11.2743Z" fill="url(#paint7_linear_221_6126)"/>
<path d="M87.8297 10.7162C85.8061 10.6809 83.8192 11.2588 82.1304 12.3739C82.071 12.4147 82.0225 12.4692 81.9889 12.5329C81.9554 12.5966 81.9378 12.6675 81.9378 12.7395V14.9079C81.9373 14.9876 81.9588 15.0659 81.9998 15.1342C82.0408 15.2026 82.0998 15.2584 82.1703 15.2955C82.2409 15.3327 82.3203 15.3497 82.3998 15.3449C82.4794 15.34 82.5561 15.3134 82.6216 15.2679C84.0132 14.3024 85.6728 13.7978 87.3664 13.8251C92.2814 13.8251 95.8093 17.3972 95.8093 22.6381C95.8093 27.9237 92.2814 31.4483 87.3664 31.4483C83.6794 31.4483 80.8325 29.4167 79.6966 26.1181C79.3284 25.0269 79.1454 23.8818 79.1551 22.7302V1.18321C79.1167 1.06973 79.04 0.973147 78.9381 0.910012C78.8363 0.846878 78.7156 0.821126 78.5969 0.83717H76.4618C76.3016 0.837908 76.1483 0.902035 76.0353 1.01552C75.9223 1.12901 75.8589 1.28262 75.8589 1.44275V33.3516C75.8589 33.4368 75.8757 33.5213 75.9084 33.6C75.9412 33.6787 75.9891 33.7502 76.0495 33.8104C76.11 33.8705 76.1817 33.9182 76.2606 33.9505C76.3394 33.9829 76.4239 33.9994 76.5092 33.999H78.4099C78.8286 33.999 79.0128 33.7674 79.0128 33.3516L79.1049 29.64C80.7795 32.7097 83.791 34.5572 87.8269 34.5572C94.5059 34.5572 99.0525 29.4558 99.0525 22.6381C99.0525 15.8651 94.5087 10.7162 87.8297 10.7162Z" fill="url(#paint8_linear_221_6126)"/>
<path d="M123.268 10.7163C116.633 10.7163 111.626 15.8651 111.626 22.6382C111.626 29.4112 116.633 34.5572 123.268 34.5572C129.855 34.5572 134.859 29.4084 134.859 22.6382C134.859 15.8679 129.855 10.7163 123.268 10.7163ZM123.268 31.4484C118.445 31.4484 114.872 27.7842 114.872 22.6382C114.872 17.4921 118.445 13.8252 123.268 13.8252C128.04 13.8252 131.613 17.4893 131.613 22.6382C131.613 27.787 128.04 31.4484 123.268 31.4484Z" fill="url(#paint9_linear_221_6126)"/>
<path d="M157.983 11.2744C157.564 11.2744 157.38 11.5061 157.38 11.9219L157.288 15.7256V22.7303C157.297 23.8809 157.114 25.0251 156.746 26.1154C155.607 29.4168 152.752 31.4484 149.029 31.4484C144.164 31.4484 140.639 27.9182 140.639 22.6382C140.639 17.3972 144.164 13.8251 149.029 13.8251C150.738 13.7946 152.413 14.3012 153.818 15.2735C153.884 15.319 153.96 15.3456 154.04 15.3505C154.12 15.3554 154.199 15.3383 154.27 15.3012C154.34 15.264 154.399 15.2083 154.44 15.1399C154.481 15.0715 154.503 14.9932 154.502 14.9135V12.7675C154.503 12.6964 154.486 12.6262 154.453 12.563C154.421 12.4998 154.373 12.4454 154.315 12.4047C152.618 11.263 150.61 10.6733 148.566 10.7163C141.937 10.7163 137.401 15.8651 137.401 22.6382C137.401 29.4558 141.948 34.5572 148.566 34.5572C152.652 34.5572 155.616 32.7014 157.288 29.64L157.38 33.3517C157.38 33.7675 157.564 33.9991 157.983 33.9991H159.975C160.055 33.9995 160.133 33.9841 160.207 33.954C160.28 33.9239 160.347 33.8795 160.403 33.8235C160.46 33.7675 160.504 33.701 160.535 33.6276C160.565 33.5543 160.581 33.4757 160.581 33.3963V11.2744H157.983Z" fill="url(#paint10_linear_221_6126)"/>
<path d="M185.064 0.848367H182.976C182.858 0.832867 182.737 0.858847 182.636 0.921908C182.534 0.984968 182.457 1.08124 182.418 1.19442V22.7414C182.429 23.8922 182.246 25.0365 181.877 26.1265C180.741 29.4279 177.886 31.4595 174.162 31.4595C169.292 31.4484 165.759 27.9181 165.759 22.6381C165.759 17.3972 169.281 13.8251 174.151 13.8251C175.86 13.7946 177.535 14.3012 178.941 15.2735C179.006 15.319 179.083 15.3456 179.162 15.3505C179.242 15.3554 179.321 15.3383 179.392 15.3012C179.462 15.264 179.521 15.2082 179.562 15.1399C179.603 15.0715 179.625 14.9932 179.624 14.9135V12.7423C179.625 12.6706 179.608 12.5998 179.575 12.5362C179.541 12.4725 179.493 12.4178 179.435 12.3767C177.731 11.2559 175.727 10.6771 173.688 10.7163C167.054 10.7163 162.524 15.8651 162.524 22.6381C162.524 29.4558 167.065 34.5572 173.688 34.5572C177.768 34.5572 180.738 32.7014 182.407 29.64L182.502 33.3516C182.502 33.7674 182.686 33.9991 183.105 33.9991H185.059C185.23 33.9991 185.395 33.9308 185.516 33.8094C185.638 33.688 185.706 33.5233 185.706 33.3516V1.48744C185.703 1.31836 185.635 1.15707 185.515 1.03776C185.395 0.918454 185.233 0.85052 185.064 0.848367Z" fill="url(#paint11_linear_221_6126)"/>
<defs>
<linearGradient id="paint0_linear_221_6126" x1="10.4116" y1="24.3601" x2="19.7951" y2="24.3601" gradientUnits="userSpaceOnUse">
<stop stop-color="#52B898"/>
<stop offset="1" stop-color="#20685F"/>
</linearGradient>
<linearGradient id="paint1_linear_221_6126" x1="0.478363" y1="18.4465" x2="43.2762" y2="18.4465" gradientUnits="userSpaceOnUse">
<stop stop-color="#52B898"/>
<stop offset="1" stop-color="#20685F"/>
</linearGradient>
<linearGradient id="paint2_linear_221_6126" x1="23.7696" y1="24.3601" x2="33.153" y2="24.3601" gradientUnits="userSpaceOnUse">
<stop stop-color="#52B898"/>
<stop offset="1" stop-color="#20685F"/>
</linearGradient>
<linearGradient id="paint3_linear_221_6126" x1="17.1074" y1="17.7795" x2="26.4909" y2="17.7795" gradientUnits="userSpaceOnUse">
<stop stop-color="#52B898"/>
<stop offset="1" stop-color="#20685F"/>
</linearGradient>
<linearGradient id="paint4_linear_221_6126" x1="101.885" y1="17.7712" x2="104.313" y2="17.7712" gradientUnits="userSpaceOnUse">
<stop stop-color="#52B898"/>
<stop offset="1" stop-color="#20685F"/>
</linearGradient>
<linearGradient id="paint5_linear_221_6126" x1="106.311" y1="13.3835" x2="112.145" y2="13.2581" gradientUnits="userSpaceOnUse">
<stop stop-color="#52B898"/>
<stop offset="1" stop-color="#20685F"/>
</linearGradient>
<linearGradient id="paint6_linear_221_6126" x1="101.115" y1="22.6521" x2="104.453" y2="22.6521" gradientUnits="userSpaceOnUse">
<stop stop-color="#52B898"/>
<stop offset="1" stop-color="#20685F"/>
</linearGradient>
<linearGradient id="paint7_linear_221_6126" x1="49.5254" y1="22.638" x2="72.7161" y2="22.638" gradientUnits="userSpaceOnUse">
<stop stop-color="#52B898"/>
<stop offset="1" stop-color="#20685F"/>
</linearGradient>
<linearGradient id="paint8_linear_221_6126" x1="75.8617" y1="17.6986" x2="99.0553" y2="17.6986" gradientUnits="userSpaceOnUse">
<stop stop-color="#52B898"/>
<stop offset="1" stop-color="#20685F"/>
</linearGradient>
<linearGradient id="paint9_linear_221_6126" x1="111.626" y1="22.6382" x2="134.859" y2="22.6382" gradientUnits="userSpaceOnUse">
<stop stop-color="#52B898"/>
<stop offset="1" stop-color="#20685F"/>
</linearGradient>
<linearGradient id="paint10_linear_221_6126" x1="137.39" y1="22.6382" x2="160.581" y2="22.6382" gradientUnits="userSpaceOnUse">
<stop stop-color="#52B898"/>
<stop offset="1" stop-color="#20685F"/>
</linearGradient>
<linearGradient id="paint11_linear_221_6126" x1="162.524" y1="17.6986" x2="185.712" y2="17.6986" gradientUnits="userSpaceOnUse">
<stop stop-color="#52B898"/>
<stop offset="1" stop-color="#20685F"/>
</linearGradient>
</defs>
</svg>
