<svg width="80" height="80" viewBox="0 0 80 80" fill="none" xmlns="http://www.w3.org/2000/svg"><path fill-rule="evenodd" clip-rule="evenodd" d="M36.1224 25.6667C34.9877 21.2577 30.9854 18 26.2222 18C20.5766 18 16 22.5766 16 28.2222C16 33.8678 20.5766 38.4444 26.2222 38.4444C30.9854 38.4444 34.9877 35.1868 36.1224 30.7778H44.963V39.2963H50.0741V30.7778H53.4814V39.2963H58.5926V30.7778H62V25.6667H36.1224ZM31.3333 28.2222C31.3333 31.045 29.045 33.3333 26.2222 33.3333C23.3995 33.3333 21.1111 31.045 21.1111 28.2222C21.1111 25.3995 23.3995 23.1111 26.2222 23.1111C29.045 23.1111 31.3333 25.3995 31.3333 28.2222Z" fill="#310CCC"></path><path fill-rule="evenodd" clip-rule="evenodd" d="M41.8776 56.3333C43.0123 60.7423 47.0146 64 51.7778 64C57.4234 64 62 59.4233 62 53.7777C62 48.1321 57.4234 43.5555 51.7778 43.5555C47.0146 43.5555 43.0123 46.8132 41.8776 51.2222H33.037V42.7036H27.9259V51.2222H24.5186V42.7036H19.4075V51.2222H16V56.3333H41.8776ZM46.6667 53.7777C46.6667 50.955 48.955 48.6666 51.7778 48.6666C54.6005 48.6666 56.8889 50.955 56.8889 53.7777C56.8889 56.6005 54.6005 58.8888 51.7778 58.8888C48.955 58.8888 46.6667 56.6005 46.6667 53.7777Z" fill="#310CCC"></path></svg>
