<svg width="80" height="80" viewBox="0 0 80 80" fill="none" xmlns="http://www.w3.org/2000/svg"><path d="M24 32.6489C24 32.4316 24.177 32.2562 24.3941 32.2493C30.8491 32.0454 36.0454 26.8491 36.2494 20.3941C36.2562 20.177 36.4317 20 36.6489 20H55.6067C55.8239 20 56 20.176 56 20.3932V43.0339C56 43.2512 55.8239 43.4272 55.6067 43.4272H44.7877C44.5705 43.4272 44.3944 43.2511 44.3944 43.0339V33.7948C44.3944 33.3973 43.8568 33.2414 43.6304 33.5683C39.3932 39.6869 32.369 43.7288 24.3941 43.8579C24.1769 43.8615 24 43.6851 24 43.4679V32.6489Z" fill="#221542"></path><path d="M56 48.7019C56 48.4846 55.8239 48.3086 55.6067 48.3086H24.3933C24.1761 48.3086 24 48.4846 24 48.7019V59.5209C24 59.7381 24.1761 59.9141 24.3933 59.9141H55.6067C55.8239 59.9141 56 59.7381 56 59.5209V48.7019Z" fill="#221542"></path></svg>
