<?xml version="1.0" encoding="utf-8"?>
<!-- Generator: Adobe Illustrator 25.4.1, SVG Export Plug-In . SVG Version: 6.00 Build 0)  -->
<svg version="1.1" id="Capa_1" xmlns="http://www.w3.org/2000/svg" xmlns:xlink="http://www.w3.org/1999/xlink" x="0px" y="0px"
	 viewBox="0 0 652 244" style="enable-background:new 0 0 652 244;" xml:space="preserve">
<style type="text/css">
	.st0{fill:#03E6AB;}
	.st1{fill:#05D9CB;}
	.st2{fill:#04CCEB;}
	.st3{fill:#03F97C;}
</style>
<g>
	<path class="st0" d="M387.2,76.5c7.7,5.9,13,12.7,16.6,20.6c3.5,7.6,5,15.9,5,24.3v16c0,6-4.9,10.9-10.9,10.9h-71.8
		c-7.6,0-12.9,7.6-10.2,14.8c0.2,0.6,0.5,1.3,0.8,1.9c0.8,1.9,2.2,3.6,3.9,4.7c0.1,0.1,0.2,0.1,0.3,0.2c0.6,0.4,1.2,0.7,1.8,1
		c12,4.9,23.5,6.8,36.3,5.4c1.1-0.1,2.8-0.6,3.7-1.1c4.3-2.2,7.6-5.1,11.1-8.5c1.1-1.1,2.6-1.7,4.2-1.7c8,0.2,15.9,2.1,23.6,4.4
		c2.3,0.7,3.6,2.9,3.3,5.3c-1.1,7.3-4.7,12-10.1,17.8c-0.3,0.3-0.6,0.6-0.9,0.9c-17.6,15.6-37.8,15.4-60.3,14.5
		c-15-1.1-26.4-7.6-37.1-17.8c-0.4-0.3-0.7-0.7-1-1.1c-15.4-18.4-17.8-41.1-16.1-64.3c0-0.3,0.1-0.6,0.1-0.9
		c2.9-20.5,11.6-33.3,27.2-46.4c0.3-0.2,0.6-0.5,0.9-0.7c21.7-15.5,56.3-14.2,78.5-0.9C386.4,75.9,386.8,76.2,387.2,76.5z
		 M314.7,120.7l-0.4,1.5h63c-1-6.4-1.4-9.2-2.6-12c-2.6-6.2-8.1-10.7-14.4-12.8c-12.8-4.3-27.9-3.5-37.8,5.8
		c-0.1,0.1-0.7,0.8-1.4,1.8C318.2,109.9,316,115.2,314.7,120.7z"/>
	<path class="st1" d="M202.8,66.5c2.1,0,2.1,0,4.2,0c1.4,0,2.8,0,4.2,0c9.6,0,10.3,0,12,1.7c0.3,0.3,0.4,0.6,0.5,1
		c0.4,3.2,0.7,6.5,1,9.7c0.2,2.8,0.2,2.8,0.5,5.7c0.1,1.4,0.2,2.9,0.3,4.4c1-1.6,2-3.3,3-5c4.7-7.1,10.3-12.7,18-16.1
		c1.8-0.8,3.8-1.2,5.7-1.3c2.4-0.1,4.8-0.1,7.2-0.1c1.9,0,3.8,0,5.8,0c3,0,3,0,6,0c2,0,4,0,6.1,0c4.6,0,9.1,0,13.7,0.1
		c0.7,0,1.4,0.5,1.6,1.2c0.7,2.1,0.8,2.7,1.3,5.2c0.1,0.7-0.1,1.4-0.5,1.9c-3.2,3.5-3.6,3.8-8.4,8.4c-0.1,0.1-0.2,0.2-0.2,0.2
		c-4.4,5.6-8.4,11-11.1,17.6c-0.1,0.2-0.2,0.3-0.3,0.5c-3.3,4.1-3.4,4.1-10.3,5.2c-0.1,0-0.2,0-0.3,0c-2.8,0.1-5.5,0.1-8.3,0
		c-10.4-0.1-12.8-0.2-18.7,2.8c-5.8,2.9-9.8,8.4-10.5,14.8c-0.2,1.5-0.2,3-0.3,4.7c0,1.7-0.1,3.4-0.1,5.1c0,1.8,0,3.6,0,5.5
		s-0.1,3.8-0.1,5.7c-0.1,6-0.2,12-0.2,18c-0.1,6-0.2,12-0.3,18c-0.1,3.7-0.1,7.5-0.1,11.2c0,1.7,0,3.4-0.1,5.1c0,1.5,0,3-0.1,4.5
		c-0.2,3.1-0.3,3.4-1.6,4.7c-0.3,0.3-0.8,0.5-1.2,0.5c-5.1,0.1-10.1,0.2-15.2,0.1c-1.5,0-3,0-4.5,0c-3.2,0-6.3,0-9.5-0.1
		c-0.9,0-1.6-0.7-1.6-1.7c0-17.5-0.1-35.1-0.1-52.6c0-8.4,0-16.8,0-25.2c0-8.1,0-16.2,0-24.3c0-3.1,0-6.2,0-9.3c0-4.3,0-8.6,0-13
		c0-1.3,0-2.6,0-3.9C190.1,66.2,191.5,66.5,202.8,66.5z"/>
	<path class="st2" d="M29.7,52.1c-1.7-8-2.3-9.1-4.8-16.8c13.3-0.2,29-0.3,42.2-0.4c4.5,0,9-0.1,13.5-0.2
		c56.4-0.8,56.4-0.8,75.6,14.1c9.2,9.2,12.1,17.8,12.6,30.7c-0.4,13.2-3.8,24.1-13.3,33.4l-2.6,2.4c-0.9,0.9-2,1.6-3.1,2.1
		c-3.6,1.7-1,1.6,1.6,3c4.1,2.3,4.1,2.3,8,5.2c7.9,5.1,12.4,9.3,15.2,18.4c3.1,14.9,2.3,29.5-5.3,42.7
		c-9.6,12.4-23.4,17.4-38.3,20.7c-8.2,0.7-16.3,0.7-24.5,0.5c-2.3,0-4.6,0-6.9,0c-7.2,0-14.4-0.1-21.6-0.2c-4.9,0-9.8-0.1-14.7-0.1
		c-12-0.1-27.5,0.5-39.5,0.3c2.8-10.3,3.7-15.4,6.5-23.5C34.8,170.8,39,157,42.9,143c0.5-1.7,1-3.4,1.5-5.2c4.5-16.5,3.2-27-2.5-43
		c-1.2-3.5-2.4-6.9-3.6-10.4 M63.4,65.9c-2.3,1.2,0.9,9.8,2.9,15.7c0.5,1.5,1.1,3.9,1.7,5.4c0.5,1.5,1.2,4.1,1.7,5.6s1.3,4.4,1.8,6
		c2.1,7.4,2,8.6,6,9c8.5,0.3,13.1,0.3,19.7,0.4c2.8,0.1,2.8,0.1,5.6,0.2c9.4,0.1,15.6-0.3,22.3-4.9c3-2,5.4-4.7,6.8-8
		c1.5-3.5,2-6.9,1.7-10.8c-0.2-3.2-1.1-6.4-2.6-9.3c-1.8-3.7-4.6-6.7-12.3-9.1c-3.2-0.7-7.3-1.3-11.3-1.3c-2.3,0-4.9,0-7.3,0
		c-3.6,0-2-0.1-5.7-0.1c-2.5,0-7.2-0.2-9.7-0.2C78.6,64.5,66.8,63.6,63.4,65.9z M70.6,145.9c-0.7,1.5-0.7,2.6-1.3,4.5
		c-2,6.1-3.2,11.8-4.8,16.4c-1.7,5-4.5,10.5,2,10.7c3.5,0.1,19.3-0.1,24.5,0c2.8,0,7.1-0.1,9.9,0c4,0.1,8.4-0.1,12.4,0
		c2.4,0,5.3-0.3,7.8-0.2c7.2-0.7,10.2-1.7,15.5-6.8c4.1-5,5.4-8.3,6.4-14.7v-0.4c-1.5-10.1-8.3-18.5-18.4-20.2
		c-3.5-0.6-8.2-0.7-12.2-0.6c-3.1,0-3.8-0.1-7-0.1c-2.1,0-3.9,0-6,0c-2.2,0-2.4,0-7-0.1l-7.8-0.3c0,0-5.4-0.5-8.4,1.4
		s-4.2,4.4-4.6,6.4S70.6,145.9,70.6,145.9z"/>
	<path class="st3" d="M481.6,53.6c-1.7-8-2.3-9.1-4.8-16.8c13.3-0.2,29-0.3,42.2-0.4c4.5,0,9-0.1,13.5-0.2
		c56.4-0.8,56.4-0.8,75.6,14.1c9.2,9.2,12.1,17.8,12.6,30.7c-0.4,13.2-3.8,24.1-13.3,33.4l-2.6,2.4c-0.9,0.9-2,1.6-3.1,2.1
		c-3.6,1.7-1,1.6,1.6,3c4.1,2.3,4.1,2.3,8,5.2c7.9,5.1,12.4,9.3,15.2,18.4c3.1,14.9,2.3,29.5-5.3,42.7
		c-9.6,12.4-23.4,17.4-38.3,20.7c-8.2,0.7-16.3,0.7-24.5,0.5c-2.3,0-4.6,0-6.9,0c-7.2,0-14.4-0.1-21.6-0.2c-4.9,0-9.8-0.1-14.7-0.1
		c-12-0.1-27.5,0.5-39.5,0.3c2.8-10.3,3.7-15.4,6.5-23.5c4.5-13.8,8.7-27.6,12.6-41.5c0.5-1.7,1-3.4,1.5-5.2c4.5-16.5,3.2-27-2.5-43
		c-1.2-3.5-2.4-6.9-3.6-10.4 M515.2,67.4c-2.3,1.2,0.9,9.8,2.9,15.7c0.5,1.5,1.1,3.9,1.7,5.4c0.5,1.5,1.2,4.1,1.7,5.6s1.3,4.4,1.8,6
		c2.1,7.4,2,8.6,6,9c8.5,0.3,13.1,0.3,19.7,0.4c2.8,0.1,2.8,0.1,5.6,0.2c9.4,0.1,15.6-0.3,22.3-4.9c3-2,5.4-4.7,6.8-8
		c1.5-3.5,2-6.9,1.7-10.8c-0.2-3.2-1.1-6.4-2.6-9.3c-1.8-3.7-4.6-6.7-12.3-9.1c-3.2-0.7-7.3-1.3-11.3-1.3c-2.3,0-4.9,0-7.3,0
		c-3.6,0-2-0.1-5.7-0.1c-2.5,0-7.2-0.2-9.7-0.2C530.5,65.9,518.6,65,515.2,67.4z M522.5,147.3c-0.7,1.5-0.7,2.6-1.3,4.5
		c-2,6.1-3.2,11.8-4.8,16.4c-1.7,5-4.5,10.5,2,10.7c3.5,0.1,19.3-0.1,24.5,0c2.8,0,7.1-0.1,9.9,0c4,0.1,8.4-0.1,12.4,0
		c2.4,0,5.3-0.3,7.8-0.2c7.2-0.7,10.2-1.7,15.5-6.8c4.1-5,5.4-8.3,6.4-14.7v-0.4c-1.5-10.1-8.3-18.5-18.4-20.2
		c-3.5-0.6-8.2-0.7-12.2-0.6c-3.1,0-3.8-0.1-7-0.1c-2.1,0-3.9,0-6,0c-2.2,0-2.4,0-7-0.1l-7.8-0.3c0,0-5.4-0.5-8.4,1.4
		s-4.2,4.4-4.6,6.4C523.1,145.3,522.5,147.3,522.5,147.3z"/>
	<path class="st3" d="M448.7,108.9c4.9,0,9.8,0,14.8,0c8.9,0.1,12.5,4.2,12.2,13.9c-0.3,9.8-3.1,12.9-12.2,12.9
		c-10.8,0-21.5-0.2-32.3,0.1c-5.5,0.1-7.7-1.9-7.6-7.6c0.4-23.2-2.6-18.9,18.7-19.3C444.4,108.8,446.6,108.9,448.7,108.9z"/>
</g>
</svg>
