<?xml version="1.0" encoding="utf-8"?>
<!-- Generator: Adobe Illustrator 28.4.1, SVG Export Plug-In . SVG Version: 6.00 Build 0)  -->
<svg version="1.1" id="Layer_1" xmlns="http://www.w3.org/2000/svg" xmlns:xlink="http://www.w3.org/1999/xlink" x="0px" y="0px"
	 viewBox="0 0 672.5 142.8" style="enable-background:new 0 0 672.5 142.8;" xml:space="preserve">
<style type="text/css">
	.st0{fill:#FFFFFF;}
</style>
<g>
	<path class="st0" d="M54.8,109.7L41.3,95.1c-0.9-1-0.9-2.4,0-3.4l13.5-14.6c1.3-1.4,3.9-1.4,5.2,0l13.5,14.6c0.9,1,0.9,2.4,0,3.4
		L60,109.7C58.7,111.2,56.1,111.2,54.8,109.7z"/>
	<path class="st0" d="M76.5,14.6L6.4,90.3c-1.9,2-1.9,4.8,0,6.9l30.2,32.7c2.6,2.8,7.7,2.8,10.4,0l3.4-3.7c1.9-2,1.9-4.8,0-6.9
		L30,97.1c-1.9-2-1.9-4.8,0-6.9L76.5,40c2.6-2.8,7.7-2.8,10.4,0l46.5,50.2c1.9,2,1.9,4.8,0,6.9l-20.6,22.2c-1.9,2-1.9,4.8,0,6.9
		l3.4,3.7c2.6,2.8,7.7,2.8,10.4,0L157,97.1c1.9-2,1.9-4.8,0-6.9L86.9,14.6C84.3,11.8,79.2,11.8,76.5,14.6L76.5,14.6z"/>
	<path class="st0" d="M102.7,109.7L89.2,95.1c-0.9-1-0.9-2.4,0-3.4l13.5-14.6c1.3-1.4,3.9-1.4,5.2,0l13.5,14.6c0.9,1,0.9,2.4,0,3.4
		l-13.5,14.6C106.5,111.2,104,111.2,102.7,109.7z"/>
	<path class="st0" d="M78.8,86.2L65.3,71.6c-0.9-1-0.9-2.4,0-3.4l13.5-14.6c1.3-1.4,3.9-1.4,5.2,0l13.5,14.6c0.9,1,0.9,2.4,0,3.4
		L84,86.2C82.7,87.6,80.1,87.6,78.8,86.2z"/>
</g>
<g>
	<g>
		<path class="st0" d="M368.3,81.8c0-9.1,3.2-17.4,8.7-23.9v23.9H368.3z"/>
		<path class="st0" d="M407,54.6c0,1.2-0.5,2-1.5,2.1c-5.4,0.5-11.4,2.8-16.4,6.4c-1.1,0.8-2.9,0.2-2.9-1.1l-0.2-9.7
			c0-0.5,0.3-1,0.9-1.3c5.4-2.6,11.5-4.3,18.1-4.7c1-0.1,1.8,0.6,1.8,1.4C406.8,47.9,407,52,407,54.6L407,54.6z"/>
	</g>
	<path class="st0" d="M365.6,48.9c0-1.5,0.7-2.3,2.2-2.3h7.6c1.5,0,2.2,0.8,2.2,2.3v76.8c0,1.5-0.7,2.3-2.2,2.3h-7.6
		c-1.5,0-2.2-0.8-2.2-2.3V48.9z"/>
</g>
<path class="st0" d="M261.5,46.5h-7c-1.5,0-2.2,0.8-2.2,2.3L252,62.5v25.1c0,4.4-0.7,8.5-1.9,12.1c-4.1,11.8-14.3,19.1-27.6,19.1
	c-17.5,0-30.1-12.6-30.1-31.6s12.6-31.6,30.1-31.6c6.6,0,12.5,1.9,17.2,5.2c1,0.7,2.5,0,2.5-1.3v-7.7c0-0.5-0.2-1-0.7-1.3
	c-5.5-3.8-12.5-6-20.6-6c-23.8,0-40.1,18.5-40.1,42.7S197,130,220.8,130c14.6,0,25.3-6.6,31.2-17.6l0.3,13.3c0,1.5,0.7,2.3,2.2,2.3
	h7.1c1.2,0,2.2-1,2.2-2.2V48.9C263.8,47.6,262.8,46.5,261.5,46.5L261.5,46.5z"/>
<path class="st0" d="M318,44.5c-7.9,0-14.8,2.2-20.4,5.9c-0.4,0.3-0.7,0.8-0.7,1.3v7.8c0,1.3,1.4,2,2.5,1.3c4.7-3.3,10.5-5.2,17-5.2
	c17.6,0,30.2,12.8,30.2,31.6s-12.6,31.6-30.2,31.6c-13.2,0-23.4-7.3-27.5-19.1c-1.3-3.6-1.9-7.7-1.9-12.1V10.4
	c-0.3-0.8-0.9-1.2-2-1.2h-7.6c-1.2,0-2.2,1-2.2,2.2v114.3c0,1.3,1,2.3,2.3,2.3h6.8c1.5,0,2.2-0.8,2.2-2.3l0.3-13.3
	c6,11,16.8,17.6,31.2,17.6c23.9,0,40.2-18.3,40.2-42.7S341.9,44.5,318,44.5L318,44.5z"/>
<path class="st0" d="M445,44.5c-23.8,0-41.7,18.5-41.7,42.7s18,42.7,41.7,42.7c23.8,0,41.5-18.5,41.5-42.7S468.5,44.5,445,44.5z
	 M445,118.8c-17.3,0-30.1-13.1-30.1-31.6s12.8-31.6,30.1-31.6c17.3,0,29.9,13.1,29.9,31.6S462.1,118.8,445,118.8z"/>
<path class="st0" d="M569.3,46.5c-1.5,0-2.2,0.8-2.2,2.3l-0.3,13.6v25.1c0,4.4-0.7,8.5-1.9,12.1c-4.1,11.8-14.3,19.1-27.6,19.1
	c-17.4,0-30.1-12.6-30.1-31.6s12.6-31.6,30.1-31.6c6.6,0,12.5,1.9,17.2,5.2c1,0.7,2.5,0,2.5-1.3v-7.7c0-0.5-0.2-1-0.7-1.3
	c-5.5-3.8-12.4-6-20.6-6c-23.8,0-40,18.5-40,42.7s16.3,42.7,40,42.7c14.6,0,25.3-6.6,31.2-17.6l0.3,13.3c0,1.5,0.7,2.3,2.2,2.3h7.2
	c1.2,0,2.2-1,2.2-2.2V46.5H569.3z"/>
<path class="st0" d="M666.4,9.1h-7.5c-1.1,0-1.7,0.4-2,1.2v77.2c0,4.4-0.7,8.5-1.9,12.1c-4.1,11.8-14.3,19.1-27.6,19.1
	c-17.5,0-30.1-12.6-30.1-31.6s12.6-31.6,30.1-31.6c6.6,0,12.5,1.9,17.2,5.2c1,0.7,2.5,0,2.5-1.3v-7.8c0-0.5-0.2-1-0.7-1.3
	c-5.6-3.8-12.5-6-20.6-6c-23.8,0-40,18.5-40,42.7s16.3,42.7,40,42.7c14.6,0,25.3-6.6,31.2-17.6l0.3,13.3c0,1.5,0.7,2.3,2.2,2.3h7
	c1.3,0,2.3-1,2.3-2.3V11.5C668.7,10.2,667.7,9.1,666.4,9.1L666.4,9.1z"/>
</svg>
